<svg width="39" height="16" viewBox="0 0 39 16" fill="none" xmlns="http://www.w3.org/2000/svg">
<path fill-rule="evenodd" clip-rule="evenodd" d="M38.6499 7.23588L31.5149 0.316535C31.0796 -0.105512 30.3735 -0.105512 29.9383 0.316535C29.5028 0.739114 29.5028 1.42351 29.9383 1.84556L35.1701 6.91921H1.11477C0.499168 6.91921 0 7.40308 0 8.0004C0 8.59717 0.499168 9.08158 1.11477 9.08158H35.1701L29.9384 14.1552C29.5029 14.5767 29.5029 15.2617 29.9384 15.6837C30.156 15.8945 30.4415 15.9999 30.7268 15.9999C31.0121 15.9999 31.2974 15.8945 31.515 15.6837L38.6499 8.76437C39.0853 8.34288 39.0853 7.65793 38.6499 7.23588Z" fill="#0F2137"/>
</svg>
