<svg width="25" height="25" viewBox="0 0 25 25" fill="none" xmlns="http://www.w3.org/2000/svg">
<path fill-rule="evenodd" clip-rule="evenodd" d="M12.5 0C5.5965 0 0 5.59678 0 12.4995C0 19.4043 5.5965 25.0005 12.5 25.0005C19.4035 25.0005 25 19.4043 25 12.4995C25 5.59678 19.4035 0 12.5 0ZM16.8203 13.1624L10.5703 17.0693C10.4439 17.1484 10.3 17.1876 10.1563 17.1876C10.0261 17.1876 9.89548 17.1548 9.77749 17.0892C9.52916 16.9522 9.37502 16.6898 9.37502 16.407V8.5941C9.37502 8.3102 9.52916 8.04838 9.77749 7.91076C10.0258 7.77204 10.3295 7.78011 10.5703 7.93173L16.8203 11.8371C17.0486 11.9806 17.1875 12.2312 17.1875 12.4995C17.1875 12.7693 17.0486 13.0204 16.8203 13.1624Z" fill="white"/>
</svg>
